name processed_emg_signals						
nRows=64						
nColumns=7						
 						
endheader						
time	LGLTMED	LRF	LADDLONG	LST	LTA	LGM
1.882	0.063482308	0.230711659	0.079499368	0.049633565	0.116033575	0.105977424
1.883	0.063404156	0.230574115	0.079164674	0.049663152	0.11634187	0.105908042
1.884	0.06333703	0.230420627	0.078823736	0.049689206	0.116649941	0.105846439
1.885	0.063280736	0.230251212	0.078476882	0.049711783	0.116958448	0.105793057
1.886	0.06323507	0.230065903	0.078124443	0.049730936	0.117268049	0.105748327
1.887	0.063199822	0.229864751	0.077766755	0.04974672	0.117579396	0.105712664
1.888	0.063174769	0.229647825	0.077404152	0.049759187	0.117893134	0.10568647
1.889	0.063159683	0.229415211	0.077036971	0.049768389	0.1182099	0.105670125
1.89	0.063154328	0.229167012	0.076665552	0.049774376	0.118530322	0.105663994
1.891	0.063158458	0.228903351	0.076290231	0.049777193	0.118855016	0.105668419
1.892	0.063171822	0.228624368	0.075911347	0.049776888	0.119184588	0.105683721
1.893	0.063194162	0.228330223	0.075529237	0.049773503	0.119519631	0.105710198
1.894	0.063225213	0.228021092	0.075144237	0.049767078	0.119860722	0.105748125
1.895	0.063264704	0.227697171	0.074756681	0.04975765	0.120208425	0.105797749
1.896	0.063312359	0.227358675	0.074366901	0.049745254	0.120563286	0.105859294
1.897	0.063367897	0.227005836	0.073975226	0.049729919	0.120925834	0.105932955
1.898	0.063431032	0.226638905	0.073581983	0.049711674	0.121296577	0.1060189
1.899	0.063501472	0.226258151	0.073187493	0.04969054	0.121676007	0.106117268
1.9	0.063578924	0.225863861	0.072792074	0.049666538	0.122064591	0.106228169
1.901	0.063663091	0.22545634	0.072396041	0.049639682	0.122462777	0.106351684
1.902	0.06375367	0.22503591	0.071999702	0.049609983	0.122870986	0.106487863
1.903	0.063850358	0.224602911	0.071603361	0.049577447	0.123289619	0.106636724
1.904	0.063952851	0.2241577	0.071207316	0.049542075	0.123719048	0.106798257
1.905	0.064060838	0.223700649	0.07081186	0.049503866	0.124159621	0.106972419
1.906	0.064174013	0.223232148	0.070417279	0.04946281	0.124611658	0.107159137
1.907	0.064292064	0.222752604	0.070023851	0.049418896	0.125075451	0.107358307
1.908	0.064414681	0.222262437	0.069631851	0.049372105	0.125551263	0.107569791
1.909	0.064541552	0.221762084	0.069241545	0.049322416	0.126039329	0.107793425
1.91	0.064672366	0.221251997	0.068853191	0.049269801	0.126539851	0.108029011
1.911	0.064806812	0.220732641	0.068467042	0.049214228	0.127053002	0.10827632
1.912	0.064944582	0.220204497	0.068083342	0.049155661	0.127578923	0.108535095
1.913	0.065085366	0.219668058	0.067702328	0.049094057	0.128117724	0.10880505
1.914	0.065228857	0.21912383	0.06732423	0.049029372	0.128669481	0.109085868
1.915	0.065374751	0.218572331	0.06694927	0.048961553	0.129234239	0.109377204
1.916	0.065522744	0.218014094	0.066577663	0.048890546	0.129812008	0.109678687
1.917	0.065672537	0.217449659	0.066209614	0.048816292	0.130402768	0.109989917
1.918	0.065823832	0.216879579	0.065845323	0.048738728	0.131006461	0.110310469
1.919	0.065976335	0.216304419	0.065484981	0.048657786	0.131623	0.110639892
1.92	0.066129756	0.215724751	0.065128771	0.048573396	0.132252262	0.110977712
1.921	0.066283808	0.215141157	0.064776871	0.048485485	0.132894092	0.111323431
1.922	0.066438209	0.214554228	0.064429448	0.048393974	0.1335483	0.111676527
1.923	0.066592681	0.213964562	0.064086664	0.048298786	0.134214666	0.112036459
1.924	0.06674695	0.213372764	0.063748673	0.048199836	0.134892934	0.112402664
1.925	0.066900748	0.212779446	0.063415622	0.048097041	0.135582818	0.112774561
1.926	0.067053811	0.212185226	0.063087649	0.047990316	0.136284	0.113151549
1.927	0.067205883	0.211590726	0.062764889	0.047879572	0.136996129	0.113533014
1.928	0.067356711	0.210996573	0.062447466	0.047764722	0.137718826	0.113918322
1.929	0.067506049	0.210403397	0.062135501	0.047645676	0.138451679	0.114306827
1.93	0.067653658	0.209811831	0.061829105	0.047522346	0.139194247	0.114697869
1.931	0.067799303	0.209222509	0.061528386	0.047394643	0.139946064	0.115090778
1.932	0.067942757	0.208636067	0.061233443	0.047262478	0.14070663	0.11548487
1.933	0.068083801	0.20805314	0.060944371	0.047125765	0.141475424	0.115879456
1.934	0.068222222	0.207474364	0.060661257	0.04698442	0.142251894	0.116273836
1.935	0.068357812	0.206900373	0.060384184	0.046838358	0.143035465	0.116667305
1.936	0.068490374	0.206331797	0.06011323	0.046687501	0.143825539	0.117059153
1.937	0.068619717	0.205769265	0.059848465	0.046531772	0.144621492	0.117448666
1.938	0.068745656	0.205213401	0.059589957	0.046371097	0.145422679	0.117835128
1.939	0.068868016	0.204664823	0.059337766	0.046205409	0.146228437	0.118217823
1.94	0.068986629	0.204124144	0.05909195	0.046034643	0.147038077	0.118596035
1.941	0.069101336	0.203591972	0.05885256	0.045858742	0.147850898	0.118969052
1.942	0.069211985	0.203068904	0.058619643	0.045677653	0.148666177	0.119336164
1.943	0.069318432	0.202555532	0.058393242	0.045491332	0.149483177	0.119696668
1.944	0.069420544	0.202052436	0.058173396	0.04529974	0.150301145	0.120049867
1.945	0.069518194	0.201560187	0.057960139	0.045102846	0.151119316	0.120395075
